Coordinates
nRows=14
nColumns=24

# SIMM Motion File Header:
name Coordinates
datacolumns 24
datarows 14
otherdata 1
range 1.07233000000000000000 1.08532999999999990000
endheader
time	pelvis_tx	pelvis_ty	pelvis_tz	pelvis_tilt	pelvis_list	pelvis_rotation	hip_flexion_r	hip_adduction_r	hip_rotation_r	knee_angle_r	ankle_angle_r	subtalar_angle_r	mtp_angle_r	hip_flexion_l	hip_adduction_l	hip_rotation_l	knee_angle_l	ankle_angle_l	subtalar_angle_l	mtp_angle_l	lumbar_extension	lumbar_bending	lumbar_rotation
      1.07233000000000000000	      2.09377296012485160000	      0.82736431746247963000	     -0.26203354156909769000	     -3.67924949581815270000	     -2.19206315276572950000	     -0.61508773330416588000	      5.14168647756791940000	      7.33539881374920010000	      0.80930604321188704000	     -8.13861584148725290000	      3.69936280070005670000	      0.00000000000002970390	     -0.00000000000038178216	     28.37054927820901500000	     -5.74345488612719370000	      0.43526087046723699000	    -52.54492625196736800000	      7.46492051886688570000	     -0.00000000000007901390	     -0.00000000000062067467	      6.47821491693123000000	     -1.18041863091669370000	     14.97926148686464900000
      1.07333000000000010000	      2.09438151756751490000	      0.82732572451885644000	     -0.26203004201540320000	     -3.69318361594987050000	     -2.16586227906208780000	     -0.64898151331567333000	      5.08383018103220420000	      7.31693767896297940000	      0.83609368381354843000	     -8.10662555539153650000	      3.72638204662071050000	      0.00000000000002947461	     -0.00000000000038192667	     28.44537311506735800000	     -5.69795374801191110000	      0.45182248262019598000	    -52.31338610102884000000	      7.51434408210294880000	     -0.00000000000007917108	     -0.00000000000062147969	      6.49233371901990890000	     -1.20755884154474310000	     15.01307101828948400000
      1.07433000000000000000	      2.09499063312450890000	      0.82728586470808807000	     -0.26202746872566007000	     -3.70725632242088520000	     -2.14006332877664730000	     -0.68308597515938829000	      5.02631819432349490000	      7.29873606791919990000	      0.86311497393103043000	     -8.07516566585148790000	      3.75535372242417240000	      0.00000000000002922781	     -0.00000000000038202868	     28.51876450749505300000	     -5.65296285178284390000	      0.46874735534723627000	    -52.07861782387863100000	      7.56101830507927100000	     -0.00000000000007932082	     -0.00000000000062230119	      6.50677885037955850000	     -1.23389013541630700000	     15.04627689169707100000
      1.07533000000000010000	      2.09559974868150300000	      0.82724600489731959000	     -0.26202489543591695000	     -3.72132902889190300000	     -2.11426437849120100000	     -0.71719043700311080000	      4.96880620761477320000	      7.28053445687541600000	      0.89013626404851853000	     -8.04370577631143390000	      3.78432539822764060000	      0.00000000000002898102	     -0.00000000000038213070	     28.59215589992276600000	     -5.60797195555376680000	      0.48567222807428029000	    -51.84384954672835700000	      7.60769252805560290000	     -0.00000000000007947056	     -0.00000000000062312268	      6.52122398173921170000	     -1.26022142928787660000	     15.07948276510466300000
      1.07633000000000000000	      2.09620967518209470000	      0.82720455828315897000	     -0.26202361469692198000	     -3.73549226474180340000	     -2.08901068658811660000	     -0.75151817297768730000	      4.91163299067057310000	      7.26267883413471530000	      0.91736947574983196000	     -8.01292675665662020000	      3.81664423393466960000	      0.00000000000002872873	     -0.00000000000038226063	     28.66352979761581200000	     -5.56366418845042250000	      0.50314836600790436000	    -51.60488374279533700000	      7.65071185885241260000	     -0.00000000000007961702	     -0.00000000000062393786	      6.53598958219296740000	     -1.28547064026221160000	     15.11181082166352300000
      1.07733000000000010000	      2.09681960168268630000	      0.82716311166899825000	     -0.26202233395792707000	     -3.74965550059170740000	     -2.06375699468502690000	     -0.78584590895227158000	      4.85445977372636150000	      7.24482321139401100000	      0.94460268745115161000	     -7.98214773700180210000	      3.84896306964170830000	      0.00000000000002847644	     -0.00000000000038239056	     28.73490369530887300000	     -5.51935642134706850000	      0.52062450394153281000	    -51.36591793886225300000	      7.69373118964922840000	     -0.00000000000007976347	     -0.00000000000062475305	      6.55075518264672760000	     -1.31071985123655140000	     15.14413887822239100000
      1.07833000000000000000	      2.09742998209906870000	      0.82712089446940296000	     -0.26202176920329817000	     -3.76381825898248530000	     -2.03881721585373390000	     -0.82025765358573965000	      4.79739912485770770000	      7.22716797078543220000	      0.97184386516268528000	     -7.95167254932425220000	      3.88276003378987780000	      0.00000000000002823746	     -0.00000000000038256355	     28.80516724225751800000	     -5.47543232388044740000	      0.53843186976012025000	    -51.12480765521821300000	      7.73481199242984820000	     -0.00000000000007991501	     -0.00000000000062555617	      6.56562893005369830000	     -1.33537276069199560000	     15.17596344109029100000
      1.07933000000000010000	      2.09804081643124230000	      0.82707790668437298000	     -0.26202192043303540000	     -3.77798053991414440000	     -2.01419135009422860000	     -0.85475340687810741000	      4.74045104406458860000	      7.20971311230897260000	      0.99909300888444486000	     -7.92150119362395970000	      3.91803512637920330000	      0.00000000000002801180	     -0.00000000000038277961	     28.87432043846176900000	     -5.43189189605054160000	      0.55657046346367689000	    -50.88155289186308700000	      7.77395426719427720000	     -0.00000000000008007164	     -0.00000000000062634722	      6.58061082441388740000	     -1.35942936862855100000	     15.20728451026723200000
      1.08033000000000000000	      2.09865165076341540000	      0.82703491889934300000	     -0.26202207166277264000	     -3.79214282084579990000	     -1.98956548433472840000	     -0.88924916017046751000	      4.68350296327148200000	      7.19225825383251660000	      1.02634215260619840000	     -7.89132983792367430000	      3.95331021896852030000	      0.00000000000002778613	     -0.00000000000038299566	     28.94347363466600200000	     -5.38835146822064640000	      0.57470905716722953000	    -50.63829812850801200000	      7.81309654195869820000	     -0.00000000000008022827	     -0.00000000000062713826	      6.59559271877407390000	     -1.38348597656510110000	     15.23860557944416900000
      1.08132999999999990000	      2.09926346598784090000	      0.82699055342688210000	     -0.26202369753752269000	     -3.80619958976270210000	     -1.96561726827674700000	     -0.92386454739326718000	      4.62661419920602060000	      7.17523223313690830000	      1.05340680708527160000	     -7.86156173831224430000	      3.99017256994652710000	      0.00000000000002758304	     -0.00000000000038323249	     29.01029071653189100000	     -5.34563126978266910000	      0.59356965644918891000	    -50.39088319299583700000	      7.84834323679208270000	     -0.00000000000008037986	     -0.00000000000062793596	      6.61066296481253970000	     -1.40630120749437370000	     15.26886031460488800000
      1.08233000000000000000	      2.09987528121226630000	      0.82694618795442121000	     -0.26202532341227269000	     -3.82025635867960740000	     -1.94166905221876210000	     -0.95847993461607484000	      4.56972543514054760000	      7.15820621244129640000	      1.08047146156435030000	     -7.83179363870080980000	      4.02703492092454600000	      0.00000000000002737994	     -0.00000000000038346932	     29.07710779839779000000	     -5.30291107134468480000	      0.61243025573115439000	    -50.14346825748359000000	      7.88358993162546540000	     -0.00000000000008053146	     -0.00000000000062873365	      6.62573321085100900000	     -1.42911643842364810000	     15.29911504976561100000
      1.08332999999999990000	      2.10048760484290750000	      0.82690124044634428000	     -0.26202766257788968000	     -3.83421825418170360000	     -1.91805506980564910000	     -0.99313348840405957000	      4.51278354623081230000	      7.14138616001554280000	      1.10738547206087620000	     -7.80210200377253040000	      4.06401686630861110000	      0.00000000000002716898	     -0.00000000000038367730	     29.14276352949865900000	     -5.26059407679844070000	      0.63165456687840016000	    -49.89413685038846300000	      7.91700192326408110000	     -0.00000000000008067808	     -0.00000000000062955480	      6.64079223603690410000	     -1.45133270794322230000	     15.32884195439083400000
      1.08433000000000000000	      2.10110043687976500000	      0.82685571090265131000	     -0.26203071503437358000	     -3.84808527626899590000	     -1.89477532103740230000	     -1.02782520875723750000	      4.45578853247678990000	      7.12477207585964400000	      1.13414883857485930000	     -7.77248683352739440000	      4.10111840609874000000	      0.00000000000002695015	     -0.00000000000038385644	     29.20725790983451400000	     -5.21868028614392370000	      0.65124258989093986000	    -49.64288897171031300000	      7.94857921170791840000	     -0.00000000000008081972	     -0.00000000000063039942	      6.65584004037023200000	     -1.47295001605309770000	     15.35804102848056200000
      1.08532999999999990000	      2.10171353798105450000	      0.82680990120822206000	     -0.26203414035921130000	     -3.86189805213067670000	     -1.87166668145871370000	     -1.06251938395892750000	      4.39874952726747640000	      7.10826045869892290000	      1.16080469652498560000	     -7.74287060459861110000	      4.13806661994173730000	      0.00000000000002672913	     -0.00000000000038403152	     29.27116840659108700000	     -5.17696836283631350000	      0.67102972143322959000	    -49.39071968112804000000	      7.97924482423646000000	     -0.00000000000008096198	     -0.00000000000063124582	      6.67087300961923990000	     -1.49426697280250910000	     15.38695936172041100000
